<svg width="25" height="24" viewBox="0 0 25 24" fill="none" xmlns="http://www.w3.org/2000/svg">
<path d="M2.1999 0.5L2.8999 1.7L4.0999 2.3L2.8999 3L2.1999 4.2L1.5999 3L0.399902 2.3L1.5999 1.7L2.1999 0.5Z" fill="white"/>
<path d="M22.1999 10.5L22.8999 11.7L24.0999 12.3L22.8999 13L22.1999 14.2L21.5999 13L20.3999 12.3L21.5999 11.7L22.1999 10.5Z" fill="white"/>
<path d="M13.3999 12.2002C13.3999 8.5002 15.3999 5.3002 18.3999 3.5002C16.8999 2.6002 15.1999 2.2002 13.3999 2.2002C7.8999 2.2002 3.3999 6.7002 3.3999 12.2002C3.3999 17.7002 7.8999 22.2002 13.3999 22.2002C15.1999 22.2002 16.8999 21.7002 18.3999 20.9002C15.3999 19.2002 13.3999 15.9002 13.3999 12.2002Z" fill="white" stroke="white" stroke-width="2" stroke-linejoin="round"/>
</svg>
