<svg width="64" height="64" viewBox="0 0 64 64" fill="none" xmlns="http://www.w3.org/2000/svg">
<path d="M38.6402 15.2002L39.2002 16.1602L40.1602 16.6402L39.2002 17.2002L38.6402 18.1602L38.1602 17.2002L37.2002 16.6402L38.1602 16.1602L38.6402 15.2002Z" fill="white"/>
<path d="M54.6402 23.2002L55.2002 24.1602L56.1602 24.6402L55.2002 25.2002L54.6402 26.1602L54.1602 25.2002L53.2002 24.6402L54.1602 24.1602L54.6402 23.2002Z" fill="white"/>
<path d="M47.6001 24.5605C47.6001 21.6005 49.2001 19.0405 51.6001 17.6005C50.4001 16.8805 49.0401 16.5605 47.6001 16.5605C43.2001 16.5605 39.6001 20.1605 39.6001 24.5605C39.6001 28.9605 43.2001 32.5605 47.6001 32.5605C49.0401 32.5605 50.4001 32.1605 51.6001 31.5205C49.2001 30.1605 47.6001 27.5205 47.6001 24.5605Z" fill="white" stroke="white" stroke-width="1.6" stroke-linejoin="round"/>
<path d="M47.7001 34.4C47.7001 29.8 44.0001 26.2 39.5001 26.2C38.5001 26.2 37.6001 26.4 36.7001 26.7C36.4001 23.3 33.6001 20.5 30.1001 20.5C26.4001 20.5 23.4001 23.5 23.4001 27.2C23.4001 28 23.6001 28.8 23.8001 29.5C23.5001 29.4 23.1001 29.4 22.8001 29.4C19.1001 29.4 16.1001 32.4 16.1001 36.1C16.1001 39.7 19.0001 42.7 22.6001 42.8H39.8001C44.2001 42.3 47.7001 38.8 47.7001 34.4Z" fill="white" stroke="black" stroke-width="1.2" stroke-linejoin="round"/>
</svg>
