<svg width="34" height="30" viewBox="0 0 34 30" fill="none" xmlns="http://www.w3.org/2000/svg">
<path d="M23.5201 9.24039C23.5201 6.48039 21.3001 4.32039 18.6001 4.32039C18.0001 4.32039 17.4601 4.44039 16.9201 4.62039C16.7401 2.58039 15.0601 0.900391 12.9601 0.900391C10.7401 0.900391 8.94006 2.70039 8.94006 4.92039C8.94006 5.40039 9.06006 5.88039 9.18006 6.30039C9.00006 6.24039 8.76006 6.24039 8.58006 6.24039C6.36006 6.24039 4.56006 8.04039 4.56006 10.2604C4.56006 12.4204 6.30006 14.2204 8.46006 14.2804H18.7801C21.4201 13.9804 23.5201 11.8804 23.5201 9.24039Z" fill="white" stroke="black" stroke-width="0.72" stroke-linejoin="round"/>
<path d="M32.6 20.4C32.6 15.8 28.9 12.2 24.4 12.2C23.4 12.2 22.5 12.4 21.6 12.7C21.3 9.3 18.5 6.5 15 6.5C11.3 6.5 8.3 9.5 8.3 13.2C8.3 14 8.5 14.8 8.7 15.5C8.4 15.4 8 15.4 7.7 15.4C4 15.4 1 18.4 1 22.1C1 25.7 3.9 28.7 7.5 28.8H24.7C29.1 28.3 32.6 24.8 32.6 20.4Z" fill="white" stroke="black" stroke-width="1.2" stroke-linejoin="round"/>
</svg>
