<svg width="42" height="29" viewBox="0 0 42 29" fill="none" xmlns="http://www.w3.org/2000/svg">
<path d="M23.5396 0.200195L24.0996 1.1602L25.0596 1.6402L24.0996 2.2002L23.5396 3.1602L23.0596 2.2002L22.0996 1.6402L23.0596 1.1602L23.5396 0.200195Z" fill="white"/>
<path d="M39.5396 8.2002L40.0996 9.1602L41.0596 9.6402L40.0996 10.2002L39.5396 11.1602L39.0596 10.2002L38.0996 9.6402L39.0596 9.1602L39.5396 8.2002Z" fill="white"/>
<path d="M32.5 9.56055C32.5 6.60055 34.1 4.04055 36.5 2.60055C35.3 1.88055 33.94 1.56055 32.5 1.56055C28.1 1.56055 24.5 5.16055 24.5 9.56055C24.5 13.9605 28.1 17.5605 32.5 17.5605C33.94 17.5605 35.3 17.1605 36.5 16.5205C34.1 15.1605 32.5 12.5205 32.5 9.56055Z" fill="white" stroke="white" stroke-width="1.6" stroke-linejoin="round"/>
<path d="M32.6 19.4C32.6 14.8 28.9 11.2 24.4 11.2C23.4 11.2 22.5 11.4 21.6 11.7C21.3 8.3 18.5 5.5 15 5.5C11.3 5.5 8.3 8.5 8.3 12.2C8.3 13 8.5 13.8 8.7 14.5C8.4 14.4 8 14.4 7.7 14.4C4 14.4 1 17.4 1 21.1C1 24.7 3.9 27.7 7.5 27.8H24.7C29.1 27.3 32.6 23.8 32.6 19.4Z" fill="white" stroke="black" stroke-width="1.2" stroke-linejoin="round"/>
</svg>
