<svg width="34" height="36" viewBox="0 0 34 36" fill="none" xmlns="http://www.w3.org/2000/svg">
<path d="M32.6 15.4C32.6 10.8 28.9 7.2 24.4 7.2C23.4 7.2 22.5 7.4 21.6 7.7C21.3 4.3 18.5 1.5 15 1.5C11.3 1.5 8.3 4.5 8.3 8.2C8.3 9 8.5 9.8 8.7 10.5C8.4 10.4 8 10.4 7.7 10.4C4 10.4 1 13.4 1 17.1C1 20.7 3.9 23.7 7.5 23.8H24.7C29.1 23.3 32.6 19.8 32.6 15.4Z" fill="white" stroke="black" stroke-width="1.2" stroke-linejoin="round"/>
<path d="M12.8179 26.9434L11.4287 34.8218" stroke="white" stroke-width="2" stroke-linecap="round" stroke-dasharray="4 7"/>
<path d="M19.0737 26.0156L17.6845 33.8941" stroke="white" stroke-width="2" stroke-linecap="round" stroke-dasharray="4 7"/>
</svg>
