<svg width="43" height="45" viewBox="0 0 43 45" fill="none" xmlns="http://www.w3.org/2000/svg">
<path d="M15.8999 26.7998V30.3998" stroke="white" stroke-width="2.4" stroke-linecap="round"/>
<path d="M8.26318 23.6357L5.7176 26.1813" stroke="white" stroke-width="2.4" stroke-linecap="round"/>
<path d="M5.09961 15.999H1.49961" stroke="white" stroke-width="2.4" stroke-linecap="round"/>
<path d="M8.26318 8.3623L5.7176 5.81672" stroke="white" stroke-width="2.4" stroke-linecap="round"/>
<path d="M15.8999 5.19922V1.59922" stroke="white" stroke-width="2.4" stroke-linecap="round"/>
<path d="M23.5366 8.3623L26.0822 5.81672" stroke="white" stroke-width="2.4" stroke-linecap="round"/>
<path d="M26.7002 15.999H30.3002" stroke="white" stroke-width="2.4" stroke-linecap="round"/>
<path d="M23.5366 23.6357L26.0822 26.1813" stroke="white" stroke-width="2.4" stroke-linecap="round"/>
<path d="M15.8999 22C19.2136 22 21.8999 19.3137 21.8999 16C21.8999 12.6863 19.2136 10 15.8999 10C12.5862 10 9.8999 12.6863 9.8999 16C9.8999 19.3137 12.5862 22 15.8999 22Z" fill="white" stroke="white" stroke-width="2.4"/>
<path d="M41.445 25.0894C41.445 21.1794 38.3 18.1194 34.475 18.1194C33.625 18.1194 32.86 18.2894 32.095 18.5444C31.84 15.6544 29.46 13.2744 26.485 13.2744C23.34 13.2744 20.79 15.8244 20.79 18.9694C20.79 19.6494 20.96 20.3294 21.13 20.9244C20.875 20.8394 20.535 20.8394 20.28 20.8394C17.135 20.8394 14.585 23.3894 14.585 26.5344C14.585 29.5944 17.05 32.1444 20.11 32.2294H34.73C38.47 31.8044 41.445 28.8294 41.445 25.0894Z" fill="white" stroke="black" stroke-width="1.275" stroke-linejoin="round"/>
<path d="M23.8179 35.9424L22.4287 43.8208" stroke="white" stroke-width="2" stroke-linecap="round" stroke-dasharray="4 7"/>
<path d="M30.0742 35.0146L28.685 42.8931" stroke="white" stroke-width="2" stroke-linecap="round" stroke-dasharray="4 7"/>
</svg>
