<svg width="34" height="40" viewBox="0 0 34 40" fill="none" xmlns="http://www.w3.org/2000/svg">
<path d="M23.5196 9.24039C23.5196 6.48039 21.2996 4.32039 18.5996 4.32039C17.9996 4.32039 17.4596 4.44039 16.9196 4.62039C16.7396 2.58039 15.0596 0.900391 12.9596 0.900391C10.7396 0.900391 8.93957 2.70039 8.93957 4.92039C8.93957 5.40039 9.05957 5.88039 9.17957 6.30039C8.99957 6.24039 8.75957 6.24039 8.57957 6.24039C6.35957 6.24039 4.55957 8.04039 4.55957 10.2604C4.55957 12.4204 6.29957 14.2204 8.45957 14.2804H18.7796C21.4196 13.9804 23.5196 11.8804 23.5196 9.24039Z" fill="white" stroke="black" stroke-width="0.72" stroke-linejoin="round"/>
<path d="M32.6 18.4C32.6 13.8 28.9 10.2 24.4 10.2C23.4 10.2 22.5 10.4 21.6 10.7C21.3 7.3 18.5 4.5 15 4.5C11.3 4.5 8.3 7.5 8.3 11.2C8.3 12 8.5 12.8 8.7 13.5C8.4 13.4 8 13.4 7.7 13.4C4 13.4 1 16.4 1 20.1C1 23.7 3.9 26.7 7.5 26.8H24.7C29.1 26.3 32.6 22.8 32.6 18.4Z" fill="white" stroke="black" stroke-width="1.2" stroke-linejoin="round"/>
<path d="M13.0597 18.5205H20.4997L15.5797 27.1605H20.2597L9.69973 39.5205L13.7797 30.2805H9.21973L13.0597 18.5205Z" fill="white" stroke="black" stroke-width="1.2"/>
</svg>
