<svg width="64" height="64" viewBox="0 0 64 64" fill="none" xmlns="http://www.w3.org/2000/svg">
<path d="M38.6202 25.2404C38.6202 22.4804 36.4002 20.3204 33.7002 20.3204C33.1002 20.3204 32.5602 20.4404 32.0202 20.6204C31.8402 18.5804 30.1602 16.9004 28.0602 16.9004C25.8402 16.9004 24.0402 18.7004 24.0402 20.9204C24.0402 21.4004 24.1602 21.8804 24.2802 22.3004C24.1002 22.2404 23.8602 22.2404 23.6802 22.2404C21.4602 22.2404 19.6602 24.0404 19.6602 26.2604C19.6602 28.4204 21.4002 30.2204 23.5602 30.2804H33.8802C36.5202 29.9804 38.6202 27.8804 38.6202 25.2404Z" fill="white" stroke="black" stroke-width="0.72" stroke-linejoin="round"/>
<path d="M47.7001 34.4C47.7001 29.8 44.0001 26.2 39.5001 26.2C38.5001 26.2 37.6001 26.4 36.7001 26.7C36.4001 23.3 33.6001 20.5 30.1001 20.5C26.4001 20.5 23.4001 23.5 23.4001 27.2C23.4001 28 23.6001 28.8 23.8001 29.5C23.5001 29.4 23.1001 29.4 22.8001 29.4C19.1001 29.4 16.1001 32.4 16.1001 36.1C16.1001 39.7 19.0001 42.7 22.6001 42.8H39.8001C44.2001 42.3 47.7001 38.8 47.7001 34.4Z" fill="white" stroke="black" stroke-width="1.2" stroke-linejoin="round"/>
<path d="M28.1603 34.5205H35.6003L30.6803 43.1605H35.3603L24.8003 55.5205L28.8803 46.2805H24.3203L28.1603 34.5205Z" fill="white" stroke="black" stroke-width="1.2"/>
</svg>
