<svg width="34" height="40" viewBox="0 0 34 40" fill="none" xmlns="http://www.w3.org/2000/svg">
<path d="M23.5201 9.24039C23.5201 6.48039 21.3001 4.32039 18.6001 4.32039C18.0001 4.32039 17.4601 4.44039 16.9201 4.62039C16.7401 2.58039 15.0601 0.900391 12.9601 0.900391C10.7401 0.900391 8.94006 2.70039 8.94006 4.92039C8.94006 5.40039 9.06006 5.88039 9.18006 6.30039C9.00006 6.24039 8.76006 6.24039 8.58006 6.24039C6.36006 6.24039 4.56006 8.04039 4.56006 10.2604C4.56006 12.4204 6.30006 14.2204 8.46006 14.2804H18.7801C21.4201 13.9804 23.5201 11.8804 23.5201 9.24039Z" fill="white" stroke="black" stroke-width="0.72" stroke-linejoin="round"/>
<path d="M32.6 18.4C32.6 13.8 28.9 10.2 24.4 10.2C23.4 10.2 22.5 10.4 21.6 10.7C21.3 7.3 18.5 4.5 15 4.5C11.3 4.5 8.3 7.5 8.3 11.2C8.3 12 8.5 12.8 8.7 13.5C8.4 13.4 8 13.4 7.7 13.4C4 13.4 1 16.4 1 20.1C1 23.7 3.9 26.7 7.5 26.8H24.7C29.1 26.3 32.6 22.8 32.6 18.4Z" fill="white" stroke="black" stroke-width="1.2" stroke-linejoin="round"/>
<path d="M13.0602 18.5205H20.5002L15.5802 27.1605H20.2602L9.70021 39.5205L13.7802 30.2805H9.22021L13.0602 18.5205Z" fill="white" stroke="black" stroke-width="1.2"/>
</svg>
