<svg width="34" height="32" viewBox="0 0 34 32" fill="none" xmlns="http://www.w3.org/2000/svg">
<path d="M32.6 15.4C32.6 10.8 28.9 7.2 24.4 7.2C23.4 7.2 22.5 7.4 21.6 7.7C21.3 4.3 18.5 1.5 15 1.5C11.3 1.5 8.3 4.5 8.3 8.2C8.3 9 8.5 9.8 8.7 10.5C8.4 10.4 8 10.4 7.7 10.4C4 10.4 1 13.4 1 17.1C1 20.7 3.9 23.7 7.5 23.8H24.7C29.1 23.3 32.6 19.8 32.6 15.4Z" fill="white" stroke="black" stroke-width="1.2" stroke-linejoin="round"/>
<path d="M11.8999 25.5V30.5" stroke="white" stroke-width="1.2" stroke-linecap="round"/>
<path d="M13.668 26.2324L10.1324 29.768" stroke="white" stroke-linecap="round"/>
<path d="M14.4004 28H9.40039" stroke="white" stroke-linecap="round"/>
<path d="M13.668 29.7676L10.1324 26.232" stroke="white" stroke-linecap="round"/>
<path d="M20.9004 25.5V30.5" stroke="white" stroke-width="1.2" stroke-linecap="round"/>
<path d="M22.668 26.2324L19.1324 29.768" stroke="white" stroke-linecap="round"/>
<path d="M23.4004 28H18.4004" stroke="white" stroke-linecap="round"/>
<path d="M22.668 29.7676L19.1324 26.232" stroke="white" stroke-linecap="round"/>
</svg>
