<svg width="43" height="31" viewBox="0 0 43 31" fill="none" xmlns="http://www.w3.org/2000/svg">
<path d="M13.9004 22V25" stroke="white" stroke-width="2" stroke-linecap="round"/>
<path d="M7.53613 19.3643L5.41481 21.4856" stroke="white" stroke-width="2" stroke-linecap="round"/>
<path d="M4.90039 13H1.90039" stroke="white" stroke-width="2" stroke-linecap="round"/>
<path d="M7.53613 6.63574L5.41481 4.51442" stroke="white" stroke-width="2" stroke-linecap="round"/>
<path d="M13.9004 4V1" stroke="white" stroke-width="2" stroke-linecap="round"/>
<path d="M20.2646 6.63574L22.386 4.51442" stroke="white" stroke-width="2" stroke-linecap="round"/>
<path d="M22.9004 13H25.9004" stroke="white" stroke-width="2" stroke-linecap="round"/>
<path d="M20.2646 19.3643L22.386 21.4856" stroke="white" stroke-width="2" stroke-linecap="round"/>
<path d="M13.9004 18C16.6618 18 18.9004 15.7614 18.9004 13C18.9004 10.2386 16.6618 8 13.9004 8C11.139 8 8.90039 10.2386 8.90039 13C8.90039 15.7614 11.139 18 13.9004 18Z" fill="white" stroke="white" stroke-width="2"/>
<path d="M41.6 21.4C41.6 16.8 37.9 13.2 33.4 13.2C32.4 13.2 31.5 13.4 30.6 13.7C30.3 10.3 27.5 7.5 24 7.5C20.3 7.5 17.3 10.5 17.3 14.2C17.3 15 17.5 15.8 17.7 16.5C17.4 16.4 17 16.4 16.7 16.4C13 16.4 10 19.4 10 23.1C10 26.7 12.9 29.7 16.5 29.8H33.7C38.1 29.3 41.6 25.8 41.6 21.4Z" fill="white" stroke="black" stroke-width="1.2" stroke-linejoin="round"/>
</svg>
